# xmcd
#
# Track frame offsets:
#	150
#	15248
#	28722
#	38997
#	52361
#	64965
#	77146
#	90020
#	101121
#	112236
#	122953
#	135271
#	145183
#	155987
#	168601
#	181511
#	193218
#	203112
#	219437
#	231561
#
# Disc length: 3263 seconds
#
# Revision: 0
# Processed by: cddbd v1.5.2PL0 Copyright (c) Steve Scherf et al.
# Submitted via: audiograbber 1.83.01
#
DISCID=250cbd14
DTITLE=Wanda Jackson - The Famous Wanda Jackson CD17
DYEAR=2012
DGENRE=Country
TTITLE0=Weary Blues From Waiting
TTITLE1=We'll Sing In The Sunshine
TTITLE2=Wenn Der Abschied Kommt
TTITLE3=Wer An das Meer Sein Herz verloren
TTITLE4=What A Sunday
TTITLE5=What Am I Living For
TTITLE6=What Gives You The Right (To Do Me Wrong)
TTITLE7=What Have We Done (&Don Bartlet)
TTITLE8=What Have We Done
TTITLE9=Whirlpool
TTITLE10=Who Do You Go To
TTITLE11=Who Shot John
TTITLE12=Who Shot Sam
TTITLE13=Whole Lot Of
TTITLE14=Why Don't We Love Like That Anymore
TTITLE15=Why I´m Walkin´
TTITLE16=Wishing Well
TTITLE17=Woman Walk Out The Door [With Rosie Flores, Vocal]
TTITLE18=Wonder Could I Live There Anymore
TTITLE19=Worried Mind
EXTD=
EXTT0=
EXTT1=
EXTT2=
EXTT3=
EXTT4=
EXTT5=
EXTT6=
EXTT7=
EXTT8=
EXTT9=
EXTT10=
EXTT11=
EXTT12=
EXTT13=
EXTT14=
EXTT15=
EXTT16=
EXTT17=
EXTT18=
EXTT19=
PLAYORDER=
